<svg xmlns="http://www.w3.org/2000/svg" width="49.859" height="50.823" viewBox="0 0 49.859 50.823"><g transform="translate(0.5 0.5)"><g transform="translate(7.2 8.323)" stroke="#707070" stroke-width="1"><ellipse cx="17" cy="21" rx="17" ry="21" stroke="none"/><ellipse cx="17" cy="21" rx="16.5" ry="20.5" fill="none"/></g><path d="M843.43,1340c-13.436,0-24.43,10.508-24.43,23.351a23.5,23.5,0,0,0,16.643,22.184c1.221.146,1.679-.438,1.679-1.168v-4.378c-6.718,1.459-8.245-2.773-8.245-2.773a6.09,6.09,0,0,0-2.748-3.357c-2.29-1.46.153-1.46.153-1.46a5.32,5.32,0,0,1,3.817,2.335c2.138,3.5,5.649,2.481,7.176,1.9a4.957,4.957,0,0,1,1.527-3.065c-5.5-.584-11.146-2.627-11.146-11.53a9.005,9.005,0,0,1,2.443-6.276,7.587,7.587,0,0,1,.305-6.13s1.985-.584,6.718,2.335a21.212,21.212,0,0,1,6.107-.73,27.925,27.925,0,0,1,6.107.73c4.733-3.065,6.718-2.335,6.718-2.335a8.349,8.349,0,0,1,.306,6.13,8.75,8.75,0,0,1,2.443,6.276c0,8.9-5.649,10.946-11.146,11.53a5.447,5.447,0,0,1,1.679,4.379v6.422c0,.584.458,1.313,1.68,1.168a23.308,23.308,0,0,0,16.643-22.184c0-12.843-10.993-23.351-24.43-23.351Z" transform="translate(-819 -1340)" fill="#f5f4f4" stroke="#000" stroke-width="1"/></g></svg>