<svg xmlns="http://www.w3.org/2000/svg" width="53.017" height="53.017" viewBox="0 0 53.017 53.017"><g transform="translate(-151 -656.892)"><g transform="translate(151 658)" fill="#fff" stroke="#707070" stroke-width="1"><rect width="53" height="50" rx="12" stroke="none"/><rect x="0.5" y="0.5" width="52" height="49" rx="11.5" fill="none"/></g><path d="M44.112,0H8.905A8.932,8.932,0,0,0,0,8.905V44.112a8.932,8.932,0,0,0,8.905,8.905H44.112a8.932,8.932,0,0,0,8.905-8.905V8.905A8.932,8.932,0,0,0,44.112,0ZM19.881,43.076H13.254V19.881h6.627ZM16.568,16.568a3.314,3.314,0,1,1,3.314-3.314A3.313,3.313,0,0,1,16.568,16.568ZM43.076,43.076H36.449V29.822a3.314,3.314,0,0,0-6.627,0V43.076H23.195V19.881h6.627V24c1.367-1.877,3.456-4.114,5.8-4.114,4.117,0,7.455,3.71,7.455,8.284Z" transform="translate(151 656.892)" fill="#1a7096"/></g></svg>