<svg xmlns="http://www.w3.org/2000/svg" width="46.53" height="51.434" viewBox="0 0 46.53 51.434"><g transform="translate(-239.066 -669.677)"><ellipse cx="20.5" cy="22.5" rx="20.5" ry="22.5" transform="translate(242 670)" fill="#fff"/><path d="M23.265,0C10.415,0,0,11.513,0,25.717S10.415,51.434,23.265,51.434,46.53,39.92,46.53,25.717,36.115,0,23.265,0ZM34.828,19.161q.017.424.017.853c0,8.715-6,18.765-16.976,18.765a15.736,15.736,0,0,1-9.146-2.964,10.97,10.97,0,0,0,1.424.093,11.266,11.266,0,0,0,7.41-2.824,6.08,6.08,0,0,1-5.573-4.579,5.413,5.413,0,0,0,2.694-.113,6.468,6.468,0,0,1-4.785-6.466v-.084a5.517,5.517,0,0,0,2.7.825A6.8,6.8,0,0,1,9.94,17.179a7.088,7.088,0,0,1,.808-3.316,16.466,16.466,0,0,0,12.3,6.89,7.285,7.285,0,0,1-.154-1.5c0-3.642,2.671-6.595,5.966-6.595a5.707,5.707,0,0,1,4.355,2.083A11.258,11.258,0,0,0,37,13.138a6.541,6.541,0,0,1-2.623,3.649,11.067,11.067,0,0,0,3.427-1.038,12.906,12.906,0,0,1-2.976,3.414Z" transform="translate(239.066 669.677)" fill="#1d8fe7"/></g></svg>